<mxfile host="Electron" agent="Mozilla/5.0 (Windows NT 10.0; Win64; x64) AppleWebKit/537.36 (KHTML, like Gecko) draw.io/28.0.6 Chrome/138.0.7204.100 Electron/37.2.3 Safari/537.36" version="28.0.6">
  <diagram name="Página-1" id="eTRJQ6mw6z3dcFQbhY47">
    <mxGraphModel dx="1427" dy="1249" grid="0" gridSize="10" guides="1" tooltips="1" connect="1" arrows="1" fold="1" page="0" pageScale="1" pageWidth="827" pageHeight="1169" background="none" math="0" shadow="0">
      <root>
        <mxCell id="0" />
        <mxCell id="1" parent="0" />
        <mxCell id="vkQlIB7UvPm4ieAFfZVM-41" value="USER" style="shape=actor;whiteSpace=wrap;html=1;verticalAlign=bottom;labelPosition=center;verticalLabelPosition=top;align=center;" parent="1" vertex="1">
          <mxGeometry x="364" width="50" height="60" as="geometry" />
        </mxCell>
        <mxCell id="vkQlIB7UvPm4ieAFfZVM-3" value="Juan-" style="points=[[0,0],[0.25,0],[0.5,0],[0.75,0],[1,0],[1,0.25],[1,0.5],[1,0.75],[1,1],[0.75,1],[0.5,1],[0.25,1],[0,1],[0,0.75],[0,0.5],[0,0.25]];outlineConnect=0;gradientColor=none;html=1;whiteSpace=wrap;fontSize=12;fontStyle=0;container=1;pointerEvents=0;collapsible=0;recursiveResize=0;shape=mxgraph.aws4.group;grIcon=mxgraph.aws4.group_account;strokeColor=#CD2264;fillColor=none;verticalAlign=top;align=left;spacingLeft=30;fontColor=#CD2264;dashed=0;shadow=0;" parent="1" vertex="1">
          <mxGeometry x="7" y="160" width="820" height="590" as="geometry" />
        </mxCell>
        <mxCell id="vkQlIB7UvPm4ieAFfZVM-5" value="us-east1" style="points=[[0,0],[0.25,0],[0.5,0],[0.75,0],[1,0],[1,0.25],[1,0.5],[1,0.75],[1,1],[0.75,1],[0.5,1],[0.25,1],[0,1],[0,0.75],[0,0.5],[0,0.25]];outlineConnect=0;gradientColor=none;html=1;whiteSpace=wrap;fontSize=18;fontStyle=0;container=1;pointerEvents=0;collapsible=0;recursiveResize=0;shape=mxgraph.aws4.group;grIcon=mxgraph.aws4.group_region;strokeColor=#00A4A6;fillColor=none;verticalAlign=top;align=left;spacingLeft=30;fontColor=#147EBA;dashed=1;fontFamily=Verdana;horizontal=1;labelBackgroundColor=none;labelBorderColor=none;" parent="vkQlIB7UvPm4ieAFfZVM-3" vertex="1">
          <mxGeometry x="30" y="40" width="780" height="520" as="geometry" />
        </mxCell>
        <mxCell id="Q7-KPwuEhP6b_P__oyZH-7" style="edgeStyle=orthogonalEdgeStyle;rounded=0;orthogonalLoop=1;jettySize=auto;html=1;flowAnimation=1;" edge="1" parent="vkQlIB7UvPm4ieAFfZVM-5" source="vkQlIB7UvPm4ieAFfZVM-9" target="Q7-KPwuEhP6b_P__oyZH-5">
          <mxGeometry relative="1" as="geometry" />
        </mxCell>
        <mxCell id="Q7-KPwuEhP6b_P__oyZH-8" style="edgeStyle=orthogonalEdgeStyle;rounded=0;orthogonalLoop=1;jettySize=auto;html=1;flowAnimation=1;" edge="1" parent="vkQlIB7UvPm4ieAFfZVM-5" source="vkQlIB7UvPm4ieAFfZVM-9" target="Q7-KPwuEhP6b_P__oyZH-4">
          <mxGeometry relative="1" as="geometry" />
        </mxCell>
        <mxCell id="Q7-KPwuEhP6b_P__oyZH-9" value="PDF" style="edgeLabel;html=1;align=center;verticalAlign=middle;resizable=0;points=[];" vertex="1" connectable="0" parent="Q7-KPwuEhP6b_P__oyZH-8">
          <mxGeometry x="-0.2453" y="-1" relative="1" as="geometry">
            <mxPoint as="offset" />
          </mxGeometry>
        </mxCell>
        <mxCell id="vkQlIB7UvPm4ieAFfZVM-9" value="S3" style="outlineConnect=0;gradientColor=none;fillColor=#7AA116;strokeColor=none;dashed=0;verticalLabelPosition=top;verticalAlign=bottom;align=center;html=1;aspect=fixed;pointerEvents=1;shape=mxgraph.aws4.bucket;labelPosition=center;" parent="vkQlIB7UvPm4ieAFfZVM-5" vertex="1">
          <mxGeometry x="543" y="85.53999999999998" width="73" height="75.92" as="geometry" />
        </mxCell>
        <mxCell id="Q7-KPwuEhP6b_P__oyZH-12" style="edgeStyle=orthogonalEdgeStyle;rounded=0;orthogonalLoop=1;jettySize=auto;html=1;strokeColor=#11D0E4;fillColor=#FFFFFF;flowAnimation=1;" edge="1" parent="vkQlIB7UvPm4ieAFfZVM-5" source="vkQlIB7UvPm4ieAFfZVM-10" target="Q7-KPwuEhP6b_P__oyZH-5">
          <mxGeometry relative="1" as="geometry" />
        </mxCell>
        <mxCell id="Q7-KPwuEhP6b_P__oyZH-13" value="&lt;div style=&quot;text-align: justify;&quot;&gt;&lt;span style=&quot;background-color: light-dark(#ffffff, var(--ge-dark-color, #121212)); color: light-dark(rgb(0, 0, 0), rgb(255, 255, 255));&quot;&gt;&lt;font style=&quot;font-size: 14px;&quot;&gt;Busca Semantica&lt;/font&gt;&lt;/span&gt;&lt;/div&gt;" style="edgeLabel;html=1;align=center;verticalAlign=middle;resizable=0;points=[];" vertex="1" connectable="0" parent="Q7-KPwuEhP6b_P__oyZH-12">
          <mxGeometry x="-0.5498" y="2" relative="1" as="geometry">
            <mxPoint x="30" y="2" as="offset" />
          </mxGeometry>
        </mxCell>
        <mxCell id="Q7-KPwuEhP6b_P__oyZH-17" style="edgeStyle=orthogonalEdgeStyle;rounded=0;orthogonalLoop=1;jettySize=auto;html=1;flowAnimation=1;fillColor=#236CDD;strokeColor=#11D0E4;" edge="1" parent="vkQlIB7UvPm4ieAFfZVM-5" source="vkQlIB7UvPm4ieAFfZVM-10" target="Q7-KPwuEhP6b_P__oyZH-15">
          <mxGeometry relative="1" as="geometry" />
        </mxCell>
        <mxCell id="Q7-KPwuEhP6b_P__oyZH-21" value="&lt;font style=&quot;font-size: 14px;&quot;&gt;Output do modelo&lt;/font&gt;" style="edgeLabel;html=1;align=center;verticalAlign=middle;resizable=0;points=[];" vertex="1" connectable="0" parent="Q7-KPwuEhP6b_P__oyZH-17">
          <mxGeometry x="-0.384" relative="1" as="geometry">
            <mxPoint as="offset" />
          </mxGeometry>
        </mxCell>
        <mxCell id="vkQlIB7UvPm4ieAFfZVM-10" value="Bedrock" style="points=[[0,0,0],[0.25,0,0],[0.5,0,0],[0.75,0,0],[1,0,0],[0,1,0],[0.25,1,0],[0.5,1,0],[0.75,1,0],[1,1,0],[0,0.25,0],[0,0.5,0],[0,0.75,0],[1,0.25,0],[1,0.5,0],[1,0.75,0]];outlineConnect=0;fontColor=#F1EBEB;fillColor=#01A88D;strokeColor=#ffffff;dashed=0;verticalLabelPosition=bottom;verticalAlign=top;align=center;fontSize=18;fontStyle=0;aspect=fixed;shape=mxgraph.aws4.resourceIcon;resIcon=mxgraph.aws4.bedrock;html=1;textShadow=0;labelBorderColor=none;labelBackgroundColor=none;" parent="vkQlIB7UvPm4ieAFfZVM-5" vertex="1">
          <mxGeometry x="313" y="410" width="68" height="68" as="geometry" />
        </mxCell>
        <mxCell id="Q7-KPwuEhP6b_P__oyZH-11" value="&lt;font style=&quot;font-size: 14px;&quot;&gt;EMBEDDING&lt;/font&gt;" style="edgeStyle=orthogonalEdgeStyle;rounded=0;orthogonalLoop=1;jettySize=auto;html=1;flowAnimation=1;" edge="1" parent="vkQlIB7UvPm4ieAFfZVM-5" source="vkQlIB7UvPm4ieAFfZVM-12" target="Q7-KPwuEhP6b_P__oyZH-5">
          <mxGeometry relative="1" as="geometry" />
        </mxCell>
        <mxCell id="vkQlIB7UvPm4ieAFfZVM-12" value="Titan Embedding" style="outlineConnect=0;fontColor=#FFFAFA;gradientColor=none;fillColor=#ED7100;strokeColor=none;dashed=0;verticalLabelPosition=bottom;verticalAlign=top;align=center;html=1;fontSize=12;fontStyle=0;aspect=fixed;pointerEvents=1;shape=mxgraph.aws4.braket_embedded_simulator;" parent="vkQlIB7UvPm4ieAFfZVM-5" vertex="1">
          <mxGeometry x="243" y="250" width="78" height="78" as="geometry" />
        </mxCell>
        <mxCell id="Q7-KPwuEhP6b_P__oyZH-4" value="Standard" style="points=[[0,0,0],[0.25,0,0],[0.5,0,0],[0.75,0,0],[1,0,0],[0,1,0],[0.25,1,0],[0.5,1,0],[0.75,1,0],[1,1,0],[0,0.25,0],[0,0.5,0],[0,0.75,0],[1,0.25,0],[1,0.5,0],[1,0.75,0]];outlineConnect=0;fontColor=#FFFFFF;fillColor=#7AA116;strokeColor=#ffffff;dashed=0;verticalLabelPosition=bottom;verticalAlign=top;align=center;html=1;fontSize=12;fontStyle=0;aspect=fixed;shape=mxgraph.aws4.resourceIcon;resIcon=mxgraph.aws4.s3;" vertex="1" parent="vkQlIB7UvPm4ieAFfZVM-5">
          <mxGeometry x="713" y="95.49999999999999" width="56" height="56" as="geometry" />
        </mxCell>
        <mxCell id="Q7-KPwuEhP6b_P__oyZH-5" value="Vector" style="points=[[0,0,0],[0.25,0,0],[0.5,0,0],[0.75,0,0],[1,0,0],[0,1,0],[0.25,1,0],[0.5,1,0],[0.75,1,0],[1,1,0],[0,0.25,0],[0,0.5,0],[0,0.75,0],[1,0.25,0],[1,0.5,0],[1,0.75,0]];outlineConnect=0;fontColor=#FFFFFF;fillColor=#7AA116;strokeColor=#ffffff;dashed=0;verticalLabelPosition=middle;verticalAlign=middle;align=left;html=1;fontSize=14;fontStyle=0;aspect=fixed;shape=mxgraph.aws4.resourceIcon;resIcon=mxgraph.aws4.s3;labelPosition=right;" vertex="1" parent="vkQlIB7UvPm4ieAFfZVM-5">
          <mxGeometry x="551.5" y="261" width="56" height="56" as="geometry" />
        </mxCell>
        <mxCell id="Q7-KPwuEhP6b_P__oyZH-40" style="edgeStyle=orthogonalEdgeStyle;rounded=0;orthogonalLoop=1;jettySize=auto;html=1;flowAnimation=1;" edge="1" parent="vkQlIB7UvPm4ieAFfZVM-5" source="Q7-KPwuEhP6b_P__oyZH-15" target="vkQlIB7UvPm4ieAFfZVM-9">
          <mxGeometry relative="1" as="geometry">
            <Array as="points">
              <mxPoint x="353" y="123" />
              <mxPoint x="353" y="123" />
            </Array>
          </mxGeometry>
        </mxCell>
        <mxCell id="Q7-KPwuEhP6b_P__oyZH-48" value="&lt;font style=&quot;font-size: 14px;&quot;&gt;Persistência.&lt;/font&gt;" style="edgeLabel;html=1;align=center;verticalAlign=middle;resizable=0;points=[];" vertex="1" connectable="0" parent="Q7-KPwuEhP6b_P__oyZH-40">
          <mxGeometry x="0.2715" y="-1" relative="1" as="geometry">
            <mxPoint as="offset" />
          </mxGeometry>
        </mxCell>
        <mxCell id="Q7-KPwuEhP6b_P__oyZH-41" style="edgeStyle=orthogonalEdgeStyle;rounded=0;orthogonalLoop=1;jettySize=auto;html=1;flowAnimation=1;" edge="1" parent="vkQlIB7UvPm4ieAFfZVM-5" source="Q7-KPwuEhP6b_P__oyZH-15" target="vkQlIB7UvPm4ieAFfZVM-12">
          <mxGeometry relative="1" as="geometry" />
        </mxCell>
        <mxCell id="Q7-KPwuEhP6b_P__oyZH-15" value="EC2" style="points=[[0,0,0],[0.25,0,0],[0.5,0,0],[0.75,0,0],[1,0,0],[0,1,0],[0.25,1,0],[0.5,1,0],[0.75,1,0],[1,1,0],[0,0.25,0],[0,0.5,0],[0,0.75,0],[1,0.25,0],[1,0.5,0],[1,0.75,0]];outlineConnect=0;fontColor=#F5F8FF;fillColor=#ED7100;strokeColor=#ffffff;dashed=0;verticalLabelPosition=top;verticalAlign=bottom;align=center;html=1;fontSize=21;fontStyle=0;aspect=fixed;shape=mxgraph.aws4.resourceIcon;resIcon=mxgraph.aws4.ec2;labelPosition=center;spacingLeft=47;" vertex="1" parent="vkQlIB7UvPm4ieAFfZVM-5">
          <mxGeometry x="103" y="80" width="87" height="87" as="geometry" />
        </mxCell>
        <mxCell id="Q7-KPwuEhP6b_P__oyZH-42" style="edgeStyle=orthogonalEdgeStyle;rounded=0;orthogonalLoop=1;jettySize=auto;html=1;entryX=0.033;entryY=0.604;entryDx=0;entryDy=0;entryPerimeter=0;flowAnimation=1;strokeColor=#11D0E4;" edge="1" parent="1" source="Q7-KPwuEhP6b_P__oyZH-15" target="vkQlIB7UvPm4ieAFfZVM-41">
          <mxGeometry relative="1" as="geometry">
            <Array as="points">
              <mxPoint x="180" y="36" />
            </Array>
          </mxGeometry>
        </mxCell>
        <mxCell id="Q7-KPwuEhP6b_P__oyZH-47" value="&lt;font style=&quot;font-size: 14px;&quot;&gt;OUTPUT&lt;/font&gt;" style="edgeLabel;html=1;align=center;verticalAlign=middle;resizable=0;points=[];" vertex="1" connectable="0" parent="Q7-KPwuEhP6b_P__oyZH-42">
          <mxGeometry x="0.3274" y="-2" relative="1" as="geometry">
            <mxPoint as="offset" />
          </mxGeometry>
        </mxCell>
        <mxCell id="Q7-KPwuEhP6b_P__oyZH-44" style="edgeStyle=orthogonalEdgeStyle;rounded=0;orthogonalLoop=1;jettySize=auto;html=1;flowAnimation=1;" edge="1" parent="1" source="vkQlIB7UvPm4ieAFfZVM-41" target="Q7-KPwuEhP6b_P__oyZH-15">
          <mxGeometry relative="1" as="geometry">
            <Array as="points">
              <mxPoint x="389" y="290" />
            </Array>
          </mxGeometry>
        </mxCell>
        <mxCell id="Q7-KPwuEhP6b_P__oyZH-45" value="&lt;font style=&quot;font-size: 14px;&quot;&gt;INPUT&lt;/font&gt;" style="edgeLabel;html=1;align=center;verticalAlign=middle;resizable=0;points=[];" vertex="1" connectable="0" parent="Q7-KPwuEhP6b_P__oyZH-44">
          <mxGeometry x="-0.682" y="1" relative="1" as="geometry">
            <mxPoint as="offset" />
          </mxGeometry>
        </mxCell>
      </root>
    </mxGraphModel>
  </diagram>
</mxfile>
